<svg xmlns="http://www.w3.org/2000/svg" xmlns:xlink="http://www.w3.org/1999/xlink" viewBox="0 0 661.33 157.39"><defs><style>.cls-1,.cls-10,.cls-11,.cls-12,.cls-13,.cls-14,.cls-15,.cls-16,.cls-17,.cls-18,.cls-19,.cls-2,.cls-20,.cls-21,.cls-22,.cls-23,.cls-24,.cls-25,.cls-26,.cls-27,.cls-28,.cls-29,.cls-3,.cls-30,.cls-31,.cls-33,.cls-34,.cls-35,.cls-36,.cls-37,.cls-4,.cls-5,.cls-6,.cls-7,.cls-8,.cls-9{fill:#fff;}.cls-1,.cls-10,.cls-11,.cls-12,.cls-13,.cls-14,.cls-15,.cls-16,.cls-17,.cls-18,.cls-19,.cls-2,.cls-20,.cls-21,.cls-22,.cls-23,.cls-24,.cls-25,.cls-26,.cls-27,.cls-28,.cls-29,.cls-3,.cls-30,.cls-31,.cls-32,.cls-33,.cls-34,.cls-35,.cls-36,.cls-37,.cls-4,.cls-5,.cls-6,.cls-7,.cls-8,.cls-9{stroke-miterlimit:10;}.cls-1{stroke:url(#Безымянный_градиент_33);}.cls-2{stroke:url(#Безымянный_градиент_33-2);}.cls-3{stroke:url(#Безымянный_градиент_33-3);}.cls-4{stroke:url(#Безымянный_градиент_33-4);}.cls-5{stroke:url(#Безымянный_градиент_33-5);}.cls-6{stroke:url(#Безымянный_градиент_33-6);}.cls-7{stroke:url(#Безымянный_градиент_33-7);}.cls-8{stroke:url(#Безымянный_градиент_33-8);}.cls-9{stroke:url(#Безымянный_градиент_33-9);}.cls-10{stroke:url(#Безымянный_градиент_33-10);}.cls-11,.cls-12,.cls-13,.cls-14,.cls-15,.cls-16,.cls-17,.cls-18,.cls-19,.cls-20,.cls-21,.cls-22,.cls-23,.cls-24,.cls-25,.cls-26,.cls-27,.cls-28,.cls-29,.cls-30,.cls-31{stroke-width:0.25px;}.cls-11{stroke:url(#Безымянный_градиент_33-11);}.cls-12{stroke:url(#Безымянный_градиент_33-12);}.cls-13{stroke:url(#Безымянный_градиент_33-13);}.cls-14{stroke:url(#Безымянный_градиент_33-14);}.cls-15{stroke:url(#Безымянный_градиент_33-15);}.cls-16{stroke:url(#Безымянный_градиент_33-16);}.cls-17{stroke:url(#Безымянный_градиент_33-17);}.cls-18{stroke:url(#Безымянный_градиент_33-18);}.cls-19{stroke:url(#Безымянный_градиент_33-19);}.cls-20{stroke:url(#Безымянный_градиент_33-20);}.cls-21{stroke:url(#Безымянный_градиент_33-21);}.cls-22{stroke:url(#Безымянный_градиент_33-22);}.cls-23{stroke:url(#Безымянный_градиент_33-23);}.cls-24{stroke:url(#Безымянный_градиент_33-24);}.cls-25{stroke:url(#Безымянный_градиент_33-25);}.cls-26{stroke:url(#Безымянный_градиент_33-26);}.cls-27{stroke:url(#Безымянный_градиент_33-27);}.cls-28{stroke:url(#Безымянный_градиент_33-28);}.cls-29{stroke:url(#Безымянный_градиент_33-29);}.cls-30{stroke:url(#Безымянный_градиент_33-30);}.cls-31{stroke:url(#Безымянный_градиент_33-31);}.cls-32{fill:none;stroke:url(#Безымянный_градиент_27);}.cls-33{stroke:url(#Безымянный_градиент_27-2);}.cls-34{stroke:url(#Безымянный_градиент_27-3);}.cls-35{stroke:url(#Безымянный_градиент_27-4);}.cls-36{stroke:url(#Безымянный_градиент_27-5);}.cls-37{stroke:url(#Безымянный_градиент_27-6);}</style><radialGradient id="Безымянный_градиент_33" cx="225.04" cy="64.1" r="14.62" gradientUnits="userSpaceOnUse"><stop offset="0" stop-color="#ff0"/><stop offset="1" stop-color="#fd7b25"/></radialGradient><radialGradient id="Безымянный_градиент_33-2" cx="253.7" cy="64.1" r="19.86" xlink:href="#Безымянный_градиент_33"/><radialGradient id="Безымянный_градиент_33-3" cx="296.99" cy="63.64" r="19.71" xlink:href="#Безымянный_градиент_33"/><radialGradient id="Безымянный_градиент_33-4" cx="335.82" cy="63.64" r="16.88" xlink:href="#Безымянный_градиент_33"/><radialGradient id="Безымянный_градиент_33-5" cx="365.92" cy="58.88" r="20.83" xlink:href="#Безымянный_градиент_33"/><radialGradient id="Безымянный_градиент_33-6" cx="405.27" cy="64.1" r="15.75" xlink:href="#Безымянный_градиент_33"/><radialGradient id="Безымянный_градиент_33-7" cx="437.58" cy="58.56" r="22.8" xlink:href="#Безымянный_градиент_33"/><radialGradient id="Безымянный_градиент_33-8" cx="480.87" cy="64.55" r="19.71" xlink:href="#Безымянный_градиент_33"/><radialGradient id="Безымянный_градиент_33-9" cx="524.69" cy="64.2" r="18.61" xlink:href="#Безымянный_градиент_33"/><radialGradient id="Безымянный_градиент_33-10" cx="560.19" cy="63.64" r="16.88" xlink:href="#Безымянный_градиент_33"/><radialGradient id="Безымянный_градиент_33-11" cx="229.55" cy="104.36" r="12.5" xlink:href="#Безымянный_градиент_33"/><radialGradient id="Безымянный_градиент_33-12" cx="250.14" cy="107.17" r="9.2" xlink:href="#Безымянный_градиент_33"/><radialGradient id="Безымянный_градиент_33-13" cx="271.03" cy="107.49" r="10.17" xlink:href="#Безымянный_градиент_33"/><radialGradient id="Безымянный_градиент_33-14" cx="290.67" cy="104.36" r="11.2" xlink:href="#Безымянный_градиент_33"/><radialGradient id="Безымянный_градиент_33-15" cx="309.96" cy="107.43" r="9.39" xlink:href="#Безымянный_градиент_33"/><radialGradient id="Безымянный_градиент_33-16" cx="323.17" cy="107.43" r="7.66" xlink:href="#Безымянный_градиент_33"/><radialGradient id="Безымянный_градиент_33-17" cx="332.1" cy="107.68" r="8.06" xlink:href="#Безымянный_градиент_33"/><radialGradient id="Безымянный_градиент_33-18" cx="342.68" cy="107.43" r="7.66" xlink:href="#Безымянный_градиент_33"/><radialGradient id="Безымянный_градиент_33-19" cx="359.62" cy="107.49" r="10.17" xlink:href="#Безымянный_градиент_33"/><radialGradient id="Безымянный_градиент_33-20" cx="377.72" cy="107.43" r="8.46" xlink:href="#Безымянный_градиент_33"/><radialGradient id="Безымянный_градиент_33-21" cx="394.05" cy="107.17" r="9.2" xlink:href="#Безымянный_градиент_33"/><radialGradient id="Безымянный_градиент_33-22" cx="414.19" cy="108.58" r="2.92" xlink:href="#Безымянный_градиент_33"/><radialGradient id="Безымянный_градиент_33-23" cx="431.63" cy="107.43" r="8.59" xlink:href="#Безымянный_градиент_33"/><radialGradient id="Безымянный_градиент_33-24" cx="447.07" cy="107.17" r="9.22" xlink:href="#Безымянный_градиент_33"/><radialGradient id="Безымянный_градиент_33-25" cx="466.39" cy="107.43" r="9.39" xlink:href="#Безымянный_градиент_33"/><radialGradient id="Безымянный_градиент_33-26" cx="483.72" cy="107.17" r="9.27" xlink:href="#Безымянный_градиент_33"/><radialGradient id="Безымянный_градиент_33-27" cx="506.92" cy="107.43" r="8.46" xlink:href="#Безымянный_градиент_33"/><radialGradient id="Безымянный_градиент_33-28" cx="526.08" cy="107.49" r="10.17" xlink:href="#Безымянный_градиент_33"/><radialGradient id="Безымянный_градиент_33-29" cx="541.78" cy="107.43" r="7.66" xlink:href="#Безымянный_градиент_33"/><radialGradient id="Безымянный_градиент_33-30" cx="550.71" cy="107.68" r="8.06" xlink:href="#Безымянный_градиент_33"/><radialGradient id="Безымянный_градиент_33-31" cx="565.28" cy="104.1" r="11.06" xlink:href="#Безымянный_градиент_33"/><radialGradient id="Безымянный_градиент_27" cx="330.67" cy="156.89" r="233.82" gradientUnits="userSpaceOnUse"><stop offset="0" stop-color="#ff0"/><stop offset="1" stop-color="#ff7800"/></radialGradient><radialGradient id="Безымянный_градиент_27-2" cx="69.05" cy="86.54" r="55.26" xlink:href="#Безымянный_градиент_27"/><radialGradient id="Безымянный_градиент_27-3" cx="153.73" cy="72.17" r="53.72" xlink:href="#Безымянный_градиент_27"/><radialGradient id="Безымянный_градиент_27-4" cx="159.1" cy="57.81" r="47.28" xlink:href="#Безымянный_градиент_27"/><radialGradient id="Безымянный_градиент_27-5" cx="110.22" cy="136.42" r="20.96" xlink:href="#Безымянный_градиент_27"/><radialGradient id="Безымянный_градиент_27-6" cx="36.97" cy="139.37" r="18.01" xlink:href="#Безымянный_градиент_27"/></defs><g id="Слой_2" data-name="Слой 2"><g id="Слой_1-2" data-name="Слой 1"><path class="cls-1" d="M217.23,45.66h11V67.57c0,1.71.27,2.85.82,3.41s1.64.86,3.26.86h.57V82.53h-2.92q-6,0-9.35-3.5t-3.35-9.71Z"/><path class="cls-2" d="M254,44.74a18.16,18.16,0,0,1,13.44,5.7,19.44,19.44,0,0,1,0,27.36,19.39,19.39,0,0,1-33.09-13.72A18.55,18.55,0,0,1,240,50.36,19.17,19.17,0,0,1,254,44.74ZM253.7,55.6A7.65,7.65,0,0,0,248,58.09a8.73,8.73,0,0,0,0,12,7.93,7.93,0,0,0,11.51,0,8.83,8.83,0,0,0,0-12A7.68,7.68,0,0,0,253.7,55.6Z"/><path class="cls-3" d="M277.47,82.53V56a11.22,11.22,0,0,1,3-8.08,10.28,10.28,0,0,1,7.78-3.13A9.6,9.6,0,0,1,297,50a12.29,12.29,0,0,1,4-4,10.64,10.64,0,0,1,5.27-1.2q5,0,7.62,3.13c1.76,2.09,2.65,5.1,2.65,9V82.53h-11v-24a6.32,6.32,0,0,0-.29-2.37,1.13,1.13,0,0,0-1.14-.58q-1.62,0-1.62,2.76V82.53h-11v-24a6.07,6.07,0,0,0-.3-2.36,1.18,1.18,0,0,0-1.16-.59c-1.08,0-1.62,1-1.62,2.95v24Z"/><path class="cls-4" d="M336.52,64v9.72h-3.16v8.78h-11V59.09q0-6.81,3.72-10.58t10.44-3.77q6.48,0,9.59,3.42t3.1,10.55V82.53h-11V59.44a6.09,6.09,0,0,0-.52-3,2,2,0,0,0-1.83-.84q-2.56,0-2.57,3.84V64Z"/><path class="cls-5" d="M381.88,45.66l-10.43,16.4V82.53h-11V62.06L350,45.66H361.1l4.76,7.59,5.1-7.59Zm-5.33-10.43L369,42.61h-6.73L369,35.23Z"/><path class="cls-6" d="M414.86,45.5V56A6.2,6.2,0,0,0,413,55.6a2.86,2.86,0,0,0-2.13.92,3,3,0,0,0-.89,2.21,6,6,0,0,0,1,2.81l.84,1.46a15.31,15.31,0,0,1,2.27,7.62,12.22,12.22,0,0,1-3.83,9.1,12.83,12.83,0,0,1-9.33,3.73,12.12,12.12,0,0,1-5.24-1.22V71.57a5.37,5.37,0,0,0,2.78,1,3.52,3.52,0,0,0,2.39-.82,2.62,2.62,0,0,0,1-2.07,10.36,10.36,0,0,0-1.54-3.53,17.39,17.39,0,0,1-2.46-8.65,12.34,12.34,0,0,1,3.72-9,12,12,0,0,1,8.87-3.77A13.4,13.4,0,0,1,414.86,45.5Z"/><path class="cls-7" d="M437.9,44.74a18.19,18.19,0,0,1,13.44,5.7,19.44,19.44,0,0,1,0,27.36,19.39,19.39,0,0,1-33.09-13.72,18.51,18.51,0,0,1,5.71-13.72A19.17,19.17,0,0,1,437.9,44.74Zm-6.67-11.07a4.81,4.81,0,1,1-3.45,1.41A4.69,4.69,0,0,1,431.23,33.67Zm6.35,21.93a7.69,7.69,0,0,0-5.76,2.49,8.74,8.74,0,0,0,0,12,7.92,7.92,0,0,0,11.5,0,8.81,8.81,0,0,0,0-12A7.64,7.64,0,0,0,437.58,55.6Zm6.35-21.93A4.85,4.85,0,0,1,447.34,42a4.65,4.65,0,0,1-3.41,1.41,4.85,4.85,0,1,1,0-9.69Z"/><path class="cls-8" d="M500.38,45.66V72.21a11.24,11.24,0,0,1-3,8.11,10.24,10.24,0,0,1-7.75,3.13,9.59,9.59,0,0,1-8.75-5.21,12.19,12.19,0,0,1-4,4,10.61,10.61,0,0,1-5.27,1.2q-5,0-7.61-3.13t-2.65-9V45.66h11v24A6.22,6.22,0,0,0,472.6,72a1.15,1.15,0,0,0,1.15.56c1.08,0,1.62-.9,1.62-2.72V45.66h11v24a6,6,0,0,0,.29,2.32,1.17,1.17,0,0,0,1.16.59c1.08,0,1.63-1,1.63-2.91v-24Z"/><path class="cls-9" d="M518,56.25V82.53H507V45.66h14.29q9.39,0,14.72,4.27,6.32,5.1,6.32,13.86A18.29,18.29,0,0,1,537,77.45q-5.4,5.3-13.91,5.3c-.67,0-1.76,0-3.27-.11V71.81h1.75q9.6,0,9.59-8,0-7.55-9.42-7.54Z"/><path class="cls-10" d="M560.89,64v9.72h-3.16v8.78h-11V59.09q0-6.81,3.72-10.58t10.44-3.77q6.48,0,9.59,3.42t3.1,10.55V82.53h-11V59.44a6.09,6.09,0,0,0-.52-3,2,2,0,0,0-1.83-.84q-2.56,0-2.57,3.84V64Z"/><path class="cls-11" d="M229.73,96.69a10.09,10.09,0,0,1,7.46,3.16,10.75,10.75,0,1,1-18.38,7.57A10.24,10.24,0,0,1,222,99.81,10.61,10.61,0,0,1,229.73,96.69ZM226,90.55a2.69,2.69,0,0,1,0,5.38,2.7,2.7,0,0,1-2.7-2.7,2.68,2.68,0,0,1,2.7-2.68Zm3.52,12.17a4.24,4.24,0,0,0-3.19,1.37,4.85,4.85,0,0,0,0,6.66,4.39,4.39,0,0,0,6.38,0,4.9,4.9,0,0,0,0-6.67A4.23,4.23,0,0,0,229.55,102.72Zm3.52-12.17a2.68,2.68,0,1,1-1.91.78A2.61,2.61,0,0,1,233.07,90.55Z"/><path class="cls-12" d="M242.74,117.66V104.38a7.58,7.58,0,0,1,2.09-5.59,7.5,7.5,0,0,1,5.57-2.1,6.78,6.78,0,0,1,5.3,2,8.49,8.49,0,0,1,1.83,5.86v13.07h-6.08V104.59c0-1.25-.45-1.87-1.34-1.87s-1.29.62-1.29,1.87v13.07Z"/><path class="cls-13" d="M267.32,103.07v14.59h-6.09V97.2h7.93q5.22,0,8.17,2.37a9.35,9.35,0,0,1,3.5,7.69,10.15,10.15,0,0,1-3,7.58,10.56,10.56,0,0,1-7.72,2.94c-.37,0-1,0-1.81-.06v-6h1c3.55,0,5.32-1.49,5.32-4.45q0-4.19-5.23-4.19Z"/><path class="cls-14" d="M298.07,97.2v13.26a7.62,7.62,0,0,1-2.09,5.61,7.5,7.5,0,0,1-5.57,2.1,6.77,6.77,0,0,1-5.3-2,8.49,8.49,0,0,1-1.83-5.86V97.2h6.08v13c0,1.25.45,1.88,1.34,1.88s1.29-.63,1.29-1.88v-13Zm-10.93-6.65a2.64,2.64,0,0,1,1.92.78,2.72,2.72,0,0,1,0,3.81,2.65,2.65,0,0,1-1.92.79,2.69,2.69,0,0,1,0-5.38Zm7.06,0a2.66,2.66,0,1,1-1.91.78A2.61,2.61,0,0,1,294.2,90.55Z"/><path class="cls-15" d="M307.86,102.7v15h-6.09V97.2h7.81A8,8,0,0,1,315.11,99a6.61,6.61,0,0,1-.52,10.25l3.5,8.44h-6.38l-2.95-6.6V105.8h.48c1.27,0,1.91-.55,1.91-1.65s-.74-1.45-2.21-1.45Z"/><path class="cls-16" d="M326.21,97.2v20.46h-6.08V97.2Z"/><path class="cls-17" d="M336.15,97.2V111a7.56,7.56,0,0,1-1.77,5.15,5.69,5.69,0,0,1-4.48,2,6.18,6.18,0,0,1-1.86-.35v-5.89a2.13,2.13,0,0,0,.83.2c.8,0,1.2-.65,1.2-1.94v-13Z"/><path class="cls-18" d="M345.73,97.2v20.46h-6.09V97.2Z"/><path class="cls-19" d="M355.9,103.07v14.59h-6.08V97.2h7.93c3.47,0,6.2.79,8.16,2.37a9.36,9.36,0,0,1,3.51,7.69,10.15,10.15,0,0,1-3,7.58,10.54,10.54,0,0,1-7.71,2.94c-.37,0-1,0-1.82-.06v-6h1c3.54,0,5.32-1.49,5.32-4.45,0-2.79-1.75-4.19-5.23-4.19Z"/><path class="cls-20" d="M383.19,105.16v4.55h-4a2,2,0,0,0-1.14.24.91.91,0,0,0-.34.81c0,.43.11.72.34.85a3.29,3.29,0,0,0,1.41.2h4.09v5.85H378.8a7.44,7.44,0,0,1-5.15-1.61,6,6,0,0,1-1.79-4.66v-8a6,6,0,0,1,1.69-4.55,6.55,6.55,0,0,1,4.74-1.62h5.29v5.87H379.7c-1.05,0-1.57.34-1.57,1a.92.92,0,0,0,.37.84,2.81,2.81,0,0,0,1.34.23Z"/><path class="cls-21" d="M386.66,117.66V104.38a7.21,7.21,0,0,1,7.65-7.69,6.76,6.76,0,0,1,5.3,2,8.44,8.44,0,0,1,1.84,5.86v13.07h-6.09V104.59c0-1.25-.44-1.87-1.33-1.87s-1.29.62-1.29,1.87v13.07Z"/><path class="cls-22" d="M417.62,106.6v4h-6.85v-4Z"/><path class="cls-23" d="M437,97.11v5.83a3.4,3.4,0,0,0-1-.22,1.61,1.61,0,0,0-1.18.5,1.71,1.71,0,0,0-.5,1.23,3.37,3.37,0,0,0,.54,1.56l.47.81a8.48,8.48,0,0,1,1.26,4.23,6.8,6.8,0,0,1-2.12,5,7.15,7.15,0,0,1-5.18,2.07,6.8,6.8,0,0,1-2.91-.68v-5.92a3,3,0,0,0,1.54.56,2,2,0,0,0,1.33-.46,1.48,1.48,0,0,0,.53-1.15,5.78,5.78,0,0,0-.85-2,9.64,9.64,0,0,1-1.37-4.8,6.85,6.85,0,0,1,2.07-5,6.67,6.67,0,0,1,4.92-2.09A7.5,7.5,0,0,1,437,97.11Z"/><path class="cls-24" d="M447.46,107.39v5.4H445.7v4.87h-6.08v-13a8,8,0,0,1,2.06-5.87,7.77,7.77,0,0,1,5.79-2.09q3.6,0,5.32,1.9t1.73,5.85v13.22h-6.09V104.84a3.43,3.43,0,0,0-.28-1.66,1.1,1.1,0,0,0-1-.46c-.95,0-1.43.7-1.43,2.12v2.55Z"/><path class="cls-25" d="M464.29,102.7v15H458.2V97.2H466A8,8,0,0,1,471.54,99a6.61,6.61,0,0,1-.52,10.25l3.5,8.44h-6.38l-2.95-6.6V105.8h.48c1.27,0,1.91-.55,1.91-1.65s-.74-1.45-2.21-1.45Z"/><path class="cls-26" d="M483.21,110.58v-5.36c1.23,0,1.85-.47,1.85-1.41s-.47-1.29-1.41-1.29-1.42.59-1.42,1.77v13.37h-6.09V104.92a10.94,10.94,0,0,1,.4-3.25,6.48,6.48,0,0,1,1.35-2.36,7.48,7.48,0,0,1,2.7-1.91,8.28,8.28,0,0,1,3.34-.71,7.15,7.15,0,0,1,5.24,2.1,7,7,0,0,1,2.12,5.2,6.52,6.52,0,0,1-1.9,4.88,7.17,7.17,0,0,1-5.25,1.73Z"/><path class="cls-27" d="M512.39,105.16v4.55h-4a2,2,0,0,0-1.14.24.91.91,0,0,0-.34.81c0,.43.11.72.34.85a3.29,3.29,0,0,0,1.41.2h4.09v5.85H508a7.44,7.44,0,0,1-5.15-1.61,6,6,0,0,1-1.79-4.66v-8a6,6,0,0,1,1.69-4.55,6.55,6.55,0,0,1,4.74-1.62h5.29v5.87H508.9c-1,0-1.57.34-1.57,1a.92.92,0,0,0,.37.84,2.81,2.81,0,0,0,1.34.23Z"/><path class="cls-28" d="M522.36,103.07v14.59h-6.08V97.2h7.92q5.22,0,8.17,2.37a9.36,9.36,0,0,1,3.51,7.69,10.15,10.15,0,0,1-3,7.58,10.56,10.56,0,0,1-7.72,2.94c-.37,0-1,0-1.81-.06v-6h1c3.55,0,5.32-1.49,5.32-4.45q0-4.19-5.23-4.19Z"/><path class="cls-29" d="M544.82,97.2v20.46h-6.08V97.2Z"/><path class="cls-30" d="M554.76,97.2V111a7.56,7.56,0,0,1-1.77,5.15,5.69,5.69,0,0,1-4.48,2,6.18,6.18,0,0,1-1.86-.35v-5.89a2.13,2.13,0,0,0,.83.2c.8,0,1.2-.65,1.2-1.94v-13Z"/><path class="cls-31" d="M565.67,107.39v5.4h-1.75v4.87h-6.09v-13a8,8,0,0,1,2.06-5.87,7.81,7.81,0,0,1,5.8-2.09c2.39,0,4.17.63,5.32,1.9s1.72,3.21,1.72,5.85v13.22h-6.08V104.84a3.4,3.4,0,0,0-.29-1.66,1.1,1.1,0,0,0-1-.46c-1,0-1.42.7-1.42,2.12v2.55Zm-3.89-16.84a2.69,2.69,0,0,1,0,5.38,2.65,2.65,0,0,1-1.92-.79,2.69,2.69,0,0,1,1.92-4.59Zm7,0a2.66,2.66,0,1,1-1.91.78A2.61,2.61,0,0,1,568.8,90.55Z"/><line class="cls-32" y1="156.89" x2="661.33" y2="156.89"/><path class="cls-33" d="M101.79,35.68H74.14V27.34H65.8v8.34H40.37V84.45H27.66A8.54,8.54,0,0,0,19.11,93v31.08A25.79,25.79,0,0,1,36.9,117a24.76,24.76,0,0,1,3.47.24,25.85,25.85,0,0,1,22.39,25.61,23,23,0,0,1-.18,2.9H81.29a38.34,38.34,0,0,1,37.57-36.59ZM77.61,98.62V93a8.54,8.54,0,0,0-8.54-8.55H50.38V45.27H90.67l14.18,53.35Z"/><path class="cls-34" d="M197,116.45a5.8,5.8,0,0,1-4.44,5.62l-48.19,11.54a5.77,5.77,0,0,1-7-4.28L110.64,17.71a5.79,5.79,0,0,1,4.28-7,5.66,5.66,0,0,1,1.35-.16A5.79,5.79,0,0,1,121.9,15l25.39,106,42.55-10.19a5.79,5.79,0,0,1,7.14,5.64Z"/><path class="cls-35" d="M166.89,30l-1.71-7.14a13,13,0,0,0-15.64-9.6l-2.11.51a13,13,0,0,0-9.6,15.65L143,51a4.63,4.63,0,0,0,5.59,3.42l27.36-6.55a4.65,4.65,0,0,1,5.59,3.43l10.3,43a13,13,0,0,1-9.6,15.65l-20.13,4.83a13,13,0,0,1-15.66-9.61l-4.15-17.34a4.64,4.64,0,0,1,3.43-5.59h0a4.64,4.64,0,0,1,5.59,3.43L153,92.79a13,13,0,0,0,15.65,9.6l2.1-.5a13,13,0,0,0,9.6-15.65L175.2,64.67a4.64,4.64,0,0,0-5.59-3.43L142.26,67.8a4.65,4.65,0,0,1-5.59-3.43l-10.3-43A13,13,0,0,1,136,5.69L156.11.86a13,13,0,0,1,15.64,9.59l4.16,17.36a4.64,4.64,0,0,1-3.43,5.59h0A4.65,4.65,0,0,1,166.89,30Z"/><path class="cls-36" d="M110.22,156.88a20.46,20.46,0,1,1,20.46-20.46A20.49,20.49,0,0,1,110.22,156.88Zm0-32.7a12.24,12.24,0,1,0,12.24,12.24A12.25,12.25,0,0,0,110.22,124.18Z"/><path class="cls-37" d="M37,156.88a17.52,17.52,0,1,1,17.52-17.51A17.54,17.54,0,0,1,37,156.88Zm0-26.8a9.29,9.29,0,1,0,9.29,9.29A9.3,9.3,0,0,0,37,130.08Z"/></g></g></svg>