<svg id="Слой_1" data-name="Слой 1" xmlns="http://www.w3.org/2000/svg" xmlns:xlink="http://www.w3.org/1999/xlink" viewBox="0 0 279.143 245.0176">
  <defs>
    <radialGradient id="Безымянный_градиент" data-name="Безымянный градиент" cx="88.74245" cy="15.13072" r="85.82366" gradientTransform="matrix(1, 0, 0, -1, 0, 180.65305)" gradientUnits="userSpaceOnUse">
      <stop offset="0" stop-color="#00adff"/>
      <stop offset="1" stop-color="#4f51c0"/>
    </radialGradient>
    <radialGradient id="Безымянный_градиент_2" data-name="Безымянный градиент 2" cx="230.04036" cy="60.17728" r="73.37833" xlink:href="#Безымянный_градиент"/>
  </defs>
  <g>
    <path d="M140.18058,85.77987H96.81712V72.7066H83.74384V85.77987H43.87262v76.4764H23.91438a13.38993,13.38993,0,0,0-13.38088,13.399h0v48.73753A40.4231,40.4231,0,0,1,38.39,213.26466a38.69737,38.69737,0,0,1,5.42835.38,40.54978,40.54978,0,0,1,35.09428,40.1698,37.40945,37.40945,0,0,1-.27142,4.52362H108.0538a60.119,60.119,0,0,1,58.8976-57.37765Zm-37.917,98.70548v-8.83011a13.38992,13.38992,0,0,0-13.38088-13.399H59.56055V100.8164h63.186l22.22909,83.669Z" transform="translate(-10.3235 -30.3962)" stroke="#00adff" stroke-miterlimit="10" stroke-width="0.42" fill="url(#Безымянный_градиент)"/>
    <circle cx="143.07511" cy="213.35769" r="25.63991" fill="none" stroke="#494949" stroke-miterlimit="10" stroke-width="12.04"/>
    <circle cx="28.22029" cy="217.98084" r="21.01676" fill="none" stroke="#494949" stroke-miterlimit="10" stroke-width="9.87"/>
    <path d="M160.76977,46.65772h0a9.08119,9.08119,0,0,1,10.945,6.71877l41.92314,175.02613a9.08118,9.08118,0,0,1-6.71331,10.94838l0,0a9.08118,9.08118,0,0,1-10.945-6.71875L154.05646,57.6061A9.08119,9.08119,0,0,1,160.76977,46.65772Z" transform="translate(-10.3235 -30.3962)" fill="#494949"/>
    <path d="M202.70594,221.6969l75.56047-18.09863a9.08118,9.08118,0,0,1,10.94839,6.71332h0a9.08117,9.08117,0,0,1-6.71877,10.945l-75.56047,18.09863a9.08117,9.08117,0,0,1-10.94837-6.71331h0A9.08118,9.08118,0,0,1,202.70594,221.6969Z" transform="translate(-10.3235 -30.3962)" fill="#494949"/>
    <path d="M242.26974,76.82309,239.55557,65.6226A20.34727,20.34727,0,0,0,215.02848,50.577l-3.30224.79616a20.36535,20.36535,0,0,0-15.0094,24.54519l8.14252,33.80052a7.283,7.283,0,0,0,8.76679,5.37407l42.80253-10.27768a7.23782,7.23782,0,0,1,8.74225,5.324q.01266.0521.02454.10437L281.3629,177.709a20.3744,20.3744,0,0,1-15.06366,24.55423l-31.58395,7.51827A20.36536,20.36536,0,0,1,210.1701,194.7178l-6.514-27.14175a7.2378,7.2378,0,0,1,5.3092-8.75122l.06487-.01556h0a7.2378,7.2378,0,0,1,8.75122,5.3092l.01556.06487,2.71418,11.19144A20.35631,20.35631,0,0,0,245.04146,190.442l.01483-.00355,3.28415-.7871a20.36537,20.36537,0,0,0,15.06367-24.54519l-8.14253-33.81863a7.23779,7.23779,0,0,0-8.7019-5.38963l-.06489.01557-42.893,10.26862a7.2378,7.2378,0,0,1-8.75122-5.3092l-.01556-.06487-16.11314-67.5196a20.34727,20.34727,0,0,1,15.02868-24.539l.02594-.00622,31.593-7.57255a20.34727,20.34727,0,0,1,24.52709,15.04558l6.53211,27.21413a7.23778,7.23778,0,0,1-5.324,8.74223q-.05209.01266-.10437.02455h0a7.2378,7.2378,0,0,1-8.72528-5.35173Z" transform="translate(-10.3235 -30.3962)" stroke="#00adff" stroke-miterlimit="10" stroke-width="0.42" fill="url(#Безымянный_градиент_2)"/>
  </g>
</svg>
